{"title":"Suicide.Squad.2016.HC.HDRIP.x264.AAC-SHOWSCEN","uid":15976164,"size":1750175980,"categoryP":"video","categoryS":"movies","magnet":"?xt=urn:btih:92f89e648cefaf897810c0e13fe413bfeba653d7&amp;dn=Suicide.Squad.2016.HC.HDRIP.x264.AAC-SHOWSCEN&amp;tr=udp%3A%2F%2Ftracker.leechers-paradise.org%3A6969&amp;tr=udp%3A%2F%2Fzer0day.ch%3A1337&amp;tr=udp%3A%2F%2Fopen.demonii.com%3A1337&amp;tr=udp%3A%2F%2Ftracker.coppersurfer.tk%3A6969&amp;tr=udp%3A%2F%2Fexodus.desync.com%3A6969","seeders":44,"leechers":13,"uploader":"makintos13","files":7,"time":1475843012,"description":"Suicide.Squad.2016.HC.HDRIP.x264.AAC-SHOWSCEN\r\n\r\nScreens:\r\n \nhttps://imgmak.com/ajU\r\n \nhttps://imgmak.com/aj3\r\n \nhttps://imgmak.com/ajG\r\n\r\nGeneral\r\nComplete name : /home/psb9581/files/Suicide.Squad.2016.HC.HDRIP.x264.AAC-SHOWSCEN/Suicide.Squad.2016.HC.HDRIP.x264.AAC-SHOWSCEN.mp4\r\nFormat : MPEG-4\r\nFormat profile : Base Media\r\nCodec ID : isom\r\nFile size : 1.63 GiB\r\nDuration : 2h 2mn\r\nOverall bit rate mode : Variable\r\nOverall bit rate : 1 900 Kbps\r\nWriting application : Lavf55.37.101\r\n\r\nVideo\r\nID : 1\r\nFormat : AVC\r\nFormat/Info : Advanced Video Codec\r\nFormat profile :   \r\nFormat settings, CABAC : No\r\nFormat settings, ReFrames : 1 frame\r\nFormat settings, GOP : M=1, N=12\r\nCodec ID : avc1\r\nCodec ID/Info : Advanced Video Coding\r\nDuration : 2h 2mn\r\nBit rate mode : Variable\r\nBit rate : 1 701 Kbps\r\nMaximum bit rate : 3 400 Kbps\r\nWidth : 720 pixels\r\nHeight : 302 pixels\r\nDisplay aspect ratio : 2.40:1\r\nFrame rate mode : Constant\r\nFrame rate : 29.970 fps\r\nColor space : YUV\r\nChroma subsampling : 4:2:0\r\nBit depth : 8 bits\r\nScan type : Progressive\r\nBits/(Pixel*Frame) : 0.261\r\nStream size : 1.46 GiB (90%)\r\n\r\nAudio\r\nID : 2\r\nFormat : AAC\r\nFormat/Info : Advanced Audio Codec\r\nFormat profile : LC\r\nCodec ID : 40\r\nDuration : 2h 2mn\r\nDuration_LastFrame : -3ms\r\nBit rate mode : Constant\r\nBit rate : 192 Kbps\r\nChannel(s) : 2 channels\r\nChannel positions : Front: L R\r\nSampling rate : 44.1 KHz\r\nCompression mode : Lossy\r\nStream size : 169 MiB (10%)","torrent":{"xt":"urn:btih:92f89e648cefaf897810c0e13fe413bfeba653d7","amp;dn":"Suicide.Squad.2016.HC.HDRIP.x264.AAC-SHOWSCEN","amp;tr":["udp%3A%2F%2Ftracker.leechers-paradise.org%3A6969","udp%3A%2F%2Fzer0day.ch%3A1337","udp%3A%2F%2Fopen.demonii.com%3A1337","udp%3A%2F%2Ftracker.coppersurfer.tk%3A6969","udp%3A%2F%2Fexodus.desync.com%3A6969"],"infoHash":"92f89e648cefaf897810c0e13fe413bfeba653d7","infoHashBuffer":{"type":"Buffer","data":[146,248,158,100,140,239,175,137,120,16,192,225,63,228,19,191,235,166,83,215]},"announce":[],"urlList":[]}}